<svg width="17" height="17" viewBox="0 0 17 17" fill="none" xmlns="http://www.w3.org/2000/svg">
<path fill-rule="evenodd" clip-rule="evenodd" d="M10.625 2.53967V2.03967C10.625 1.76353 10.8488 1.53967 11.125 1.53967C11.4011 1.53967 11.625 1.76353 11.625 2.03967V2.53967H13.125C13.125 2.53967 13.5392 2.53967 13.8321 2.83257C13.8321 2.83257 14.125 3.12546 14.125 3.53967V13.5397C14.125 13.5397 14.125 13.9539 13.8321 14.2468C13.8321 14.2468 13.5392 14.5397 13.125 14.5397H3.12497C3.12497 14.5397 2.71075 14.5397 2.41786 14.2468C2.41786 14.2468 2.12497 13.9539 2.12497 13.5397V3.53967C2.12497 3.53967 2.12497 3.12546 2.41786 2.83257C2.41786 2.83257 2.71076 2.53967 3.12497 2.53967H4.62497V2.03967C4.62497 1.76353 4.84883 1.53967 5.12497 1.53967C5.40111 1.53967 5.62497 1.76353 5.62497 2.03967V2.53967H10.625ZM3.12497 6.53967V13.5397H13.125V6.53967H3.12497ZM13.125 5.53967H3.12497V3.53967H4.62497V4.03967C4.62497 4.31582 4.84883 4.53967 5.12497 4.53967C5.40111 4.53967 5.62497 4.31582 5.62497 4.03967V3.53967H10.625V4.03967C10.625 4.31582 10.8488 4.53967 11.125 4.53967C11.4011 4.53967 11.625 4.31582 11.625 4.03967V3.53967H13.125V5.53967Z" fill="#A5A29A"/>
</svg>
