<svg width="17" height="17" viewBox="0 0 17 17" fill="none" xmlns="http://www.w3.org/2000/svg">
<path fill-rule="evenodd" clip-rule="evenodd" d="M10.625 2.80951V2.30951C10.625 2.03337 10.8488 1.80951 11.125 1.80951C11.4011 1.80951 11.625 2.03337 11.625 2.30951V2.80951H13.125C13.125 2.80951 13.5392 2.80951 13.8321 3.1024C13.8321 3.1024 14.125 3.39529 14.125 3.80951V13.8095C14.125 13.8095 14.125 14.2237 13.8321 14.5166C13.8321 14.5166 13.5392 14.8095 13.125 14.8095H3.12497C3.12497 14.8095 2.71075 14.8095 2.41786 14.5166C2.41786 14.5166 2.12497 14.2237 2.12497 13.8095V3.80951C2.12497 3.80951 2.12497 3.3953 2.41786 3.1024C2.41786 3.1024 2.71076 2.80951 3.12497 2.80951H4.62497V2.30951C4.62497 2.03337 4.84883 1.80951 5.12497 1.80951C5.40111 1.80951 5.62497 2.03337 5.62497 2.30951V2.80951H10.625ZM3.12497 6.80951V13.8095H13.125V6.80951H3.12497ZM13.125 5.80951H3.12497V3.80951H4.62497V4.30951C4.62497 4.58565 4.84883 4.80951 5.12497 4.80951C5.40111 4.80951 5.62497 4.58565 5.62497 4.30951V3.80951H10.625V4.30951C10.625 4.58565 10.8488 4.80951 11.125 4.80951C11.4011 4.80951 11.625 4.58565 11.625 4.30951V3.80951H13.125V5.80951Z" fill="#A5A29A"/>
</svg>
