<svg width="17" height="17" viewBox="0 0 17 17" fill="none" xmlns="http://www.w3.org/2000/svg">
<path fill-rule="evenodd" clip-rule="evenodd" d="M10.625 2.44446V1.94446C10.625 1.66832 10.8488 1.44446 11.125 1.44446C11.4011 1.44446 11.625 1.66832 11.625 1.94446V2.44446H13.125C13.125 2.44446 13.5392 2.44446 13.8321 2.73735C13.8321 2.73735 14.125 3.03024 14.125 3.44446V13.4445C14.125 13.4445 14.125 13.8587 13.8321 14.1516C13.8321 14.1516 13.5392 14.4445 13.125 14.4445H3.12497C3.12497 14.4445 2.71075 14.4445 2.41786 14.1516C2.41786 14.1516 2.12497 13.8587 2.12497 13.4445V3.44446C2.12497 3.44446 2.12497 3.03024 2.41786 2.73735C2.41786 2.73735 2.71076 2.44446 3.12497 2.44446H4.62497V1.94446C4.62497 1.66832 4.84883 1.44446 5.12497 1.44446C5.40111 1.44446 5.62497 1.66832 5.62497 1.94446V2.44446H10.625ZM3.12497 6.44446V13.4445H13.125V6.44446H3.12497ZM13.125 5.44446H3.12497V3.44446H4.62497V3.94446C4.62497 4.2206 4.84883 4.44446 5.12497 4.44446C5.40111 4.44446 5.62497 4.2206 5.62497 3.94446V3.44446H10.625V3.94446C10.625 4.2206 10.8488 4.44446 11.125 4.44446C11.4011 4.44446 11.625 4.2206 11.625 3.94446V3.44446H13.125V5.44446Z" fill="#A5A29A"/>
</svg>
