<svg width="17" height="17" viewBox="0 0 17 17" fill="none" xmlns="http://www.w3.org/2000/svg">
<path fill-rule="evenodd" clip-rule="evenodd" d="M10.625 2.26984V1.76984C10.625 1.49369 10.8488 1.26984 11.125 1.26984C11.4011 1.26984 11.625 1.49369 11.625 1.76984V2.26984H13.125C13.125 2.26984 13.5392 2.26984 13.8321 2.56273C13.8321 2.56273 14.125 2.85562 14.125 3.26984V13.2698C14.125 13.2698 14.125 13.6841 13.8321 13.9769C13.8321 13.9769 13.5392 14.2698 13.125 14.2698H3.12497C3.12497 14.2698 2.71075 14.2698 2.41786 13.9769C2.41786 13.9769 2.12497 13.6841 2.12497 13.2698V3.26984C2.12497 3.26984 2.12497 2.85562 2.41786 2.56273C2.41786 2.56273 2.71076 2.26984 3.12497 2.26984H4.62497V1.76984C4.62497 1.49369 4.84883 1.26984 5.12497 1.26984C5.40111 1.26984 5.62497 1.49369 5.62497 1.76984V2.26984H10.625ZM3.12497 6.26984V13.2698H13.125V6.26984H3.12497ZM13.125 5.26984H3.12497V3.26984H4.62497V3.76984C4.62497 4.04598 4.84883 4.26984 5.12497 4.26984C5.40111 4.26984 5.62497 4.04598 5.62497 3.76984V3.26984H10.625V3.76984C10.625 4.04598 10.8488 4.26984 11.125 4.26984C11.4011 4.26984 11.625 4.04598 11.625 3.76984V3.26984H13.125V5.26984Z" fill="#A5A29A"/>
</svg>
