<svg width="17" height="17" viewBox="0 0 17 17" fill="none" xmlns="http://www.w3.org/2000/svg">
<path fill-rule="evenodd" clip-rule="evenodd" d="M10.625 2.17459V1.67459C10.625 1.39845 10.8488 1.17459 11.125 1.17459C11.4011 1.17459 11.625 1.39845 11.625 1.67459V2.17459H13.125C13.125 2.17459 13.5392 2.17459 13.8321 2.46748C13.8321 2.46748 14.125 2.76038 14.125 3.17459V13.1746C14.125 13.1746 14.125 13.5888 13.8321 13.8817C13.8321 13.8817 13.5392 14.1746 13.125 14.1746H3.12497C3.12497 14.1746 2.71075 14.1746 2.41786 13.8817C2.41786 13.8817 2.12497 13.5888 2.12497 13.1746V3.17459C2.12497 3.17459 2.12497 2.76038 2.41786 2.46748C2.41786 2.46748 2.71076 2.17459 3.12497 2.17459H4.62497V1.67459C4.62497 1.39845 4.84883 1.17459 5.12497 1.17459C5.40111 1.17459 5.62497 1.39845 5.62497 1.67459V2.17459H10.625ZM3.12497 6.17459V13.1746H13.125V6.17459H3.12497ZM13.125 5.17459H3.12497V3.17459H4.62497V3.67459C4.62497 3.95073 4.84883 4.17459 5.12497 4.17459C5.40111 4.17459 5.62497 3.95073 5.62497 3.67459V3.17459H10.625V3.67459C10.625 3.95073 10.8488 4.17459 11.125 4.17459C11.4011 4.17459 11.625 3.95073 11.625 3.67459V3.17459H13.125V5.17459Z" fill="#A5A29A"/>
</svg>
