<svg width="17" height="17" viewBox="0 0 17 17" fill="none" xmlns="http://www.w3.org/2000/svg">
<path fill-rule="evenodd" clip-rule="evenodd" d="M10.625 2.90475V2.40475C10.625 2.12861 10.8488 1.90475 11.125 1.90475C11.4011 1.90475 11.625 2.12861 11.625 2.40475V2.90475H13.125C13.125 2.90475 13.5392 2.90475 13.8321 3.19765C13.8321 3.19765 14.125 3.49054 14.125 3.90475V13.9048C14.125 13.9048 14.125 14.319 13.8321 14.6119C13.8321 14.6119 13.5392 14.9048 13.125 14.9048H3.12497C3.12497 14.9048 2.71075 14.9048 2.41786 14.6119C2.41786 14.6119 2.12497 14.319 2.12497 13.9048V3.90475C2.12497 3.90475 2.12497 3.49054 2.41786 3.19765C2.41786 3.19765 2.71076 2.90475 3.12497 2.90475H4.62497V2.40475C4.62497 2.12861 4.84883 1.90475 5.12497 1.90475C5.40111 1.90475 5.62497 2.12861 5.62497 2.40475V2.90475H10.625ZM3.12497 6.90475V13.9048H13.125V6.90475H3.12497ZM13.125 5.90475H3.12497V3.90475H4.62497V4.40475C4.62497 4.6809 4.84883 4.90475 5.12497 4.90475C5.40111 4.90475 5.62497 4.6809 5.62497 4.40475V3.90475H10.625V4.40475C10.625 4.6809 10.8488 4.90475 11.125 4.90475C11.4011 4.90475 11.625 4.6809 11.625 4.40475V3.90475H13.125V5.90475Z" fill="#A5A29A"/>
</svg>
