<svg width="25" height="25" viewBox="0 0 25 25" fill="none" xmlns="http://www.w3.org/2000/svg">
<path fill-rule="evenodd" clip-rule="evenodd" d="M15.9062 6.17459H8.40624C7.1636 6.17459 6.15624 7.18195 6.15624 8.42459V15.9246C6.15624 17.1672 7.1636 18.1746 8.40624 18.1746H15.9062C17.1489 18.1746 18.1562 17.1672 18.1562 15.9246V8.42459C18.1562 7.18195 17.1489 6.17459 15.9062 6.17459ZM8.40624 5.42459C6.74939 5.42459 5.40624 6.76774 5.40624 8.42459V15.9246C5.40624 17.5814 6.74939 18.9246 8.40624 18.9246H15.9062C17.5631 18.9246 18.9062 17.5814 18.9062 15.9246V8.42459C18.9062 6.76774 17.5631 5.42459 15.9062 5.42459H8.40624Z" fill="#1F1F1F" fill-opacity="0.2"/>
</svg>
