<svg width="25" height="25" viewBox="0 0 25 25" fill="none" xmlns="http://www.w3.org/2000/svg">
<path fill-rule="evenodd" clip-rule="evenodd" d="M15.9062 6.26984H8.40624C7.1636 6.26984 6.15624 7.2772 6.15624 8.51984V16.0198C6.15624 17.2625 7.1636 18.2698 8.40624 18.2698H15.9062C17.1489 18.2698 18.1562 17.2625 18.1562 16.0198V8.51984C18.1562 7.2772 17.1489 6.26984 15.9062 6.26984ZM8.40624 5.51984C6.74939 5.51984 5.40624 6.86298 5.40624 8.51984V16.0198C5.40624 17.6767 6.74939 19.0198 8.40624 19.0198H15.9062C17.5631 19.0198 18.9062 17.6767 18.9062 16.0198V8.51984C18.9062 6.86298 17.5631 5.51984 15.9062 5.51984H8.40624Z" fill="#1F1F1F" fill-opacity="0.2"/>
</svg>
