<svg width="25" height="25" viewBox="0 0 25 25" fill="none" xmlns="http://www.w3.org/2000/svg">
<path fill-rule="evenodd" clip-rule="evenodd" d="M15.9062 6.63492H8.40624C7.1636 6.63492 6.15624 7.64228 6.15624 8.88492V16.3849C6.15624 17.6276 7.1636 18.6349 8.40624 18.6349H15.9062C17.1489 18.6349 18.1562 17.6276 18.1562 16.3849V8.88492C18.1562 7.64228 17.1489 6.63492 15.9062 6.63492ZM8.40624 5.88492C6.74939 5.88492 5.40624 7.22806 5.40624 8.88492V16.3849C5.40624 18.0418 6.74939 19.3849 8.40624 19.3849H15.9062C17.5631 19.3849 18.9062 18.0418 18.9062 16.3849V8.88492C18.9062 7.22806 17.5631 5.88492 15.9062 5.88492H8.40624Z" fill="#1F1F1F" fill-opacity="0.2"/>
</svg>
