<svg width="25" height="25" viewBox="0 0 25 25" fill="none" xmlns="http://www.w3.org/2000/svg">
<path fill-rule="evenodd" clip-rule="evenodd" d="M15.9062 6.80951H8.40624C7.1636 6.80951 6.15624 7.81687 6.15624 9.05951V16.5595C6.15624 17.8022 7.1636 18.8095 8.40624 18.8095H15.9062C17.1489 18.8095 18.1562 17.8022 18.1562 16.5595V9.05951C18.1562 7.81687 17.1489 6.80951 15.9062 6.80951ZM8.40624 6.05951C6.74939 6.05951 5.40624 7.40265 5.40624 9.05951V16.5595C5.40624 18.2164 6.74939 19.5595 8.40624 19.5595H15.9062C17.5631 19.5595 18.9062 18.2164 18.9062 16.5595V9.05951C18.9062 7.40266 17.5631 6.05951 15.9062 6.05951H8.40624Z" fill="#1F1F1F" fill-opacity="0.2"/>
</svg>
