<svg width="25" height="25" viewBox="0 0 25 25" fill="none" xmlns="http://www.w3.org/2000/svg">
<path fill-rule="evenodd" clip-rule="evenodd" d="M15.9062 6.90475H8.40624C7.1636 6.90475 6.15624 7.91211 6.15624 9.15475V16.6548C6.15624 17.8974 7.1636 18.9048 8.40624 18.9048H15.9062C17.1489 18.9048 18.1562 17.8974 18.1562 16.6548V9.15475C18.1562 7.91211 17.1489 6.90475 15.9062 6.90475ZM8.40624 6.15475C6.74939 6.15475 5.40624 7.4979 5.40624 9.15475V16.6548C5.40624 18.3116 6.74939 19.6548 8.40624 19.6548H15.9062C17.5631 19.6548 18.9062 18.3116 18.9062 16.6548V9.15475C18.9062 7.4979 17.5631 6.15475 15.9062 6.15475H8.40624Z" fill="#1F1F1F" fill-opacity="0.2"/>
</svg>
