<svg width="25" height="25" viewBox="0 0 25 25" fill="none" xmlns="http://www.w3.org/2000/svg">
<path fill-rule="evenodd" clip-rule="evenodd" d="M15.9062 6.44446H8.40624C7.1636 6.44446 6.15624 7.45182 6.15624 8.69446V16.1945C6.15624 17.4371 7.1636 18.4445 8.40624 18.4445H15.9062C17.1489 18.4445 18.1562 17.4371 18.1562 16.1945V8.69446C18.1562 7.45182 17.1489 6.44446 15.9062 6.44446ZM8.40624 5.69446C6.74939 5.69446 5.40624 7.0376 5.40624 8.69446V16.1945C5.40624 17.8513 6.74939 19.1945 8.40624 19.1945H15.9062C17.5631 19.1945 18.9062 17.8513 18.9062 16.1945V8.69446C18.9062 7.0376 17.5631 5.69446 15.9062 5.69446H8.40624Z" fill="#1F1F1F" fill-opacity="0.2"/>
</svg>
