<svg width="25" height="25" viewBox="0 0 25 25" fill="none" xmlns="http://www.w3.org/2000/svg">
<path fill-rule="evenodd" clip-rule="evenodd" d="M15.9062 6.53967H8.40624C7.1636 6.53967 6.15624 7.54703 6.15624 8.78967V16.2897C6.15624 17.5323 7.1636 18.5397 8.40624 18.5397H15.9062C17.1489 18.5397 18.1562 17.5323 18.1562 16.2897V8.78967C18.1562 7.54703 17.1489 6.53967 15.9062 6.53967ZM8.40624 5.78967C6.74939 5.78967 5.40624 7.13282 5.40624 8.78967V16.2897C5.40624 17.9465 6.74939 19.2897 8.40624 19.2897H15.9062C17.5631 19.2897 18.9062 17.9465 18.9062 16.2897V8.78967C18.9062 7.13282 17.5631 5.78967 15.9062 5.78967H8.40624Z" fill="#1F1F1F" fill-opacity="0.2"/>
</svg>
