<svg width="16" height="17" viewBox="0 0 16 17" fill="none" xmlns="http://www.w3.org/2000/svg">
<path d="M3.99994 7.44446C4.55222 7.44446 4.99994 7.89217 4.99994 8.44446C4.99994 8.99674 4.55222 9.44446 3.99994 9.44446C3.44765 9.44446 2.99994 8.99674 2.99994 8.44446C2.99994 7.89217 3.44765 7.44446 3.99994 7.44446Z" fill="#1F1F1F"/>
<path d="M7.99994 7.44446C8.55222 7.44446 8.99994 7.89217 8.99994 8.44446C8.99994 8.99674 8.55222 9.44446 7.99994 9.44446C7.44765 9.44446 6.99994 8.99674 6.99994 8.44446C6.99994 7.89217 7.44765 7.44446 7.99994 7.44446Z" fill="#1F1F1F"/>
<path d="M12.9999 8.44446C12.9999 7.89217 12.5522 7.44446 11.9999 7.44446C11.4477 7.44446 10.9999 7.89217 10.9999 8.44446C10.9999 8.99674 11.4477 9.44446 11.9999 9.44446C12.5522 9.44446 12.9999 8.99674 12.9999 8.44446Z" fill="#1F1F1F"/>
</svg>
