<svg width="16" height="17" viewBox="0 0 16 17" fill="none" xmlns="http://www.w3.org/2000/svg">
<path d="M3.99994 7.26984C4.55222 7.26984 4.99994 7.71755 4.99994 8.26984C4.99994 8.82212 4.55222 9.26984 3.99994 9.26984C3.44765 9.26984 2.99994 8.82212 2.99994 8.26984C2.99994 7.71755 3.44765 7.26984 3.99994 7.26984Z" fill="#1F1F1F"/>
<path d="M7.99994 7.26984C8.55222 7.26984 8.99994 7.71755 8.99994 8.26984C8.99994 8.82212 8.55222 9.26984 7.99994 9.26984C7.44765 9.26984 6.99994 8.82212 6.99994 8.26984C6.99994 7.71755 7.44765 7.26984 7.99994 7.26984Z" fill="#1F1F1F"/>
<path d="M12.9999 8.26984C12.9999 7.71755 12.5522 7.26984 11.9999 7.26984C11.4477 7.26984 10.9999 7.71755 10.9999 8.26984C10.9999 8.82212 11.4477 9.26984 11.9999 9.26984C12.5522 9.26984 12.9999 8.82212 12.9999 8.26984Z" fill="#1F1F1F"/>
</svg>
