<svg width="16" height="17" viewBox="0 0 16 17" fill="none" xmlns="http://www.w3.org/2000/svg">
<path d="M3.99994 7.63492C4.55222 7.63492 4.99994 8.08263 4.99994 8.63492C4.99994 9.1872 4.55222 9.63492 3.99994 9.63492C3.44765 9.63492 2.99994 9.1872 2.99994 8.63492C2.99994 8.08263 3.44765 7.63492 3.99994 7.63492Z" fill="#1F1F1F"/>
<path d="M7.99994 7.63492C8.55222 7.63492 8.99994 8.08263 8.99994 8.63492C8.99994 9.1872 8.55222 9.63492 7.99994 9.63492C7.44765 9.63492 6.99994 9.1872 6.99994 8.63492C6.99994 8.08263 7.44765 7.63492 7.99994 7.63492Z" fill="#1F1F1F"/>
<path d="M12.9999 8.63492C12.9999 8.08263 12.5522 7.63492 11.9999 7.63492C11.4477 7.63492 10.9999 8.08263 10.9999 8.63492C10.9999 9.1872 11.4477 9.63492 11.9999 9.63492C12.5522 9.63492 12.9999 9.1872 12.9999 8.63492Z" fill="#1F1F1F"/>
</svg>
