<svg width="16" height="17" viewBox="0 0 16 17" fill="none" xmlns="http://www.w3.org/2000/svg">
<path d="M3.99994 7.90475C4.55222 7.90475 4.99994 8.35247 4.99994 8.90476C4.99994 9.45704 4.55222 9.90476 3.99994 9.90476C3.44765 9.90476 2.99994 9.45704 2.99994 8.90476C2.99994 8.35247 3.44765 7.90476 3.99994 7.90475Z" fill="#1F1F1F"/>
<path d="M7.99994 7.90475C8.55222 7.90475 8.99994 8.35247 8.99994 8.90475C8.99994 9.45704 8.55222 9.90476 7.99994 9.90476C7.44765 9.90476 6.99994 9.45704 6.99994 8.90476C6.99994 8.35247 7.44765 7.90475 7.99994 7.90475Z" fill="#1F1F1F"/>
<path d="M12.9999 8.90475C12.9999 8.35247 12.5522 7.90475 11.9999 7.90475C11.4477 7.90475 10.9999 8.35247 10.9999 8.90475C10.9999 9.45704 11.4477 9.90476 11.9999 9.90476C12.5522 9.90476 12.9999 9.45704 12.9999 8.90475Z" fill="#1F1F1F"/>
</svg>
