<svg width="16" height="17" viewBox="0 0 16 17" fill="none" xmlns="http://www.w3.org/2000/svg">
<path d="M3.99994 7.53967C4.55222 7.53967 4.99994 7.98739 4.99994 8.53967C4.99994 9.09196 4.55222 9.53967 3.99994 9.53967C3.44765 9.53967 2.99994 9.09196 2.99994 8.53967C2.99994 7.98739 3.44765 7.53967 3.99994 7.53967Z" fill="#1F1F1F"/>
<path d="M7.99994 7.53967C8.55222 7.53967 8.99994 7.98739 8.99994 8.53967C8.99994 9.09196 8.55222 9.53967 7.99994 9.53967C7.44765 9.53967 6.99994 9.09196 6.99994 8.53967C6.99994 7.98739 7.44765 7.53967 7.99994 7.53967Z" fill="#1F1F1F"/>
<path d="M12.9999 8.53967C12.9999 7.98739 12.5522 7.53967 11.9999 7.53967C11.4477 7.53967 10.9999 7.98739 10.9999 8.53967C10.9999 9.09196 11.4477 9.53967 11.9999 9.53967C12.5522 9.53967 12.9999 9.09196 12.9999 8.53967Z" fill="#1F1F1F"/>
</svg>
