<svg width="16" height="17" viewBox="0 0 16 17" fill="none" xmlns="http://www.w3.org/2000/svg">
<path d="M3.99994 7.17459C4.55222 7.17459 4.99994 7.62231 4.99994 8.17459C4.99994 8.72688 4.55222 9.17459 3.99994 9.17459C3.44765 9.17459 2.99994 8.72688 2.99994 8.17459C2.99994 7.62231 3.44765 7.17459 3.99994 7.17459Z" fill="#1F1F1F"/>
<path d="M7.99994 7.17459C8.55222 7.17459 8.99994 7.62231 8.99994 8.17459C8.99994 8.72688 8.55222 9.17459 7.99994 9.17459C7.44765 9.17459 6.99994 8.72688 6.99994 8.17459C6.99994 7.62231 7.44765 7.17459 7.99994 7.17459Z" fill="#1F1F1F"/>
<path d="M12.9999 8.17459C12.9999 7.62231 12.5522 7.17459 11.9999 7.17459C11.4477 7.17459 10.9999 7.62231 10.9999 8.17459C10.9999 8.72688 11.4477 9.17459 11.9999 9.17459C12.5522 9.17459 12.9999 8.72688 12.9999 8.17459Z" fill="#1F1F1F"/>
</svg>
