<svg width="16" height="17" viewBox="0 0 16 17" fill="none" xmlns="http://www.w3.org/2000/svg">
<path d="M3.99994 7.80951C4.55222 7.80951 4.99994 8.25723 4.99994 8.80951C4.99994 9.36179 4.55222 9.80951 3.99994 9.80951C3.44765 9.80951 2.99994 9.36179 2.99994 8.80951C2.99994 8.25723 3.44765 7.80951 3.99994 7.80951Z" fill="#1F1F1F"/>
<path d="M7.99994 7.80951C8.55222 7.80951 8.99994 8.25722 8.99994 8.80951C8.99994 9.36179 8.55222 9.80951 7.99994 9.80951C7.44765 9.80951 6.99994 9.36179 6.99994 8.80951C6.99994 8.25722 7.44765 7.80951 7.99994 7.80951Z" fill="#1F1F1F"/>
<path d="M12.9999 8.80951C12.9999 8.25722 12.5522 7.80951 11.9999 7.80951C11.4477 7.80951 10.9999 8.25722 10.9999 8.80951C10.9999 9.36179 11.4477 9.80951 11.9999 9.80951C12.5522 9.80951 12.9999 9.36179 12.9999 8.80951Z" fill="#1F1F1F"/>
</svg>
