<svg width="14" height="14" viewBox="0 0 14 14" fill="none" xmlns="http://www.w3.org/2000/svg">
<path fill-rule="evenodd" clip-rule="evenodd" d="M10.5 0.904755H3C1.75736 0.904755 0.75 1.91211 0.75 3.15475V10.6548C0.75 11.8974 1.75736 12.9048 3 12.9048H10.5C11.7426 12.9048 12.75 11.8974 12.75 10.6548V3.15475C12.75 1.91211 11.7426 0.904755 10.5 0.904755ZM3 0.154755C1.34315 0.154755 0 1.4979 0 3.15475V10.6548C0 12.3116 1.34315 13.6548 3 13.6548H10.5C12.1569 13.6548 13.5 12.3116 13.5 10.6548V3.15475C13.5 1.4979 12.1569 0.154755 10.5 0.154755H3Z" fill="#A5A29A"/>
</svg>
