<svg width="14" height="15" viewBox="0 0 14 15" fill="none" xmlns="http://www.w3.org/2000/svg">
<path fill-rule="evenodd" clip-rule="evenodd" d="M10.5 1.63492H3C1.75736 1.63492 0.75 2.64228 0.75 3.88492V11.3849C0.75 12.6276 1.75736 13.6349 3 13.6349H10.5C11.7426 13.6349 12.75 12.6276 12.75 11.3849V3.88492C12.75 2.64228 11.7426 1.63492 10.5 1.63492ZM3 0.884918C1.34315 0.884918 0 2.22806 0 3.88492V11.3849C0 13.0418 1.34315 14.3849 3 14.3849H10.5C12.1569 14.3849 13.5 13.0418 13.5 11.3849V3.88492C13.5 2.22806 12.1569 0.884918 10.5 0.884918H3Z" fill="#A5A29A"/>
</svg>
