<svg width="14" height="15" viewBox="0 0 14 15" fill="none" xmlns="http://www.w3.org/2000/svg">
<path fill-rule="evenodd" clip-rule="evenodd" d="M10.5 1.26984H3C1.75736 1.26984 0.75 2.2772 0.75 3.51984V11.0198C0.75 12.2625 1.75736 13.2698 3 13.2698H10.5C11.7426 13.2698 12.75 12.2625 12.75 11.0198V3.51984C12.75 2.2772 11.7426 1.26984 10.5 1.26984ZM3 0.519836C1.34315 0.519836 0 1.86298 0 3.51984V11.0198C0 12.6767 1.34315 14.0198 3 14.0198H10.5C12.1569 14.0198 13.5 12.6767 13.5 11.0198V3.51984C13.5 1.86298 12.1569 0.519836 10.5 0.519836H3Z" fill="#A5A29A"/>
</svg>
