<svg width="14" height="15" viewBox="0 0 14 15" fill="none" xmlns="http://www.w3.org/2000/svg">
<path fill-rule="evenodd" clip-rule="evenodd" d="M10.5 1.53967H3C1.75736 1.53967 0.75 2.54703 0.75 3.78967V11.2897C0.75 12.5323 1.75736 13.5397 3 13.5397H10.5C11.7426 13.5397 12.75 12.5323 12.75 11.2897V3.78967C12.75 2.54703 11.7426 1.53967 10.5 1.53967ZM3 0.789673C1.34315 0.789673 0 2.13282 0 3.78967V11.2897C0 12.9465 1.34315 14.2897 3 14.2897H10.5C12.1569 14.2897 13.5 12.9465 13.5 11.2897V3.78967C13.5 2.13282 12.1569 0.789673 10.5 0.789673H3Z" fill="#A5A29A"/>
</svg>
