<svg width="14" height="14" viewBox="0 0 14 14" fill="none" xmlns="http://www.w3.org/2000/svg">
<path fill-rule="evenodd" clip-rule="evenodd" d="M10.5 1.17459H3C1.75736 1.17459 0.75 2.18195 0.75 3.42459V10.9246C0.75 12.1672 1.75736 13.1746 3 13.1746H10.5C11.7426 13.1746 12.75 12.1672 12.75 10.9246V3.42459C12.75 2.18195 11.7426 1.17459 10.5 1.17459ZM3 0.424591C1.34315 0.424591 0 1.76774 0 3.42459V10.9246C0 12.5814 1.34315 13.9246 3 13.9246H10.5C12.1569 13.9246 13.5 12.5814 13.5 10.9246V3.42459C13.5 1.76774 12.1569 0.424591 10.5 0.424591H3Z" fill="#A5A29A"/>
</svg>
