<svg width="14" height="15" viewBox="0 0 14 15" fill="none" xmlns="http://www.w3.org/2000/svg">
<path fill-rule="evenodd" clip-rule="evenodd" d="M10.5 1.44446H3C1.75736 1.44446 0.75 2.45182 0.75 3.69446V11.1945C0.75 12.4371 1.75736 13.4445 3 13.4445H10.5C11.7426 13.4445 12.75 12.4371 12.75 11.1945V3.69446C12.75 2.45182 11.7426 1.44446 10.5 1.44446ZM3 0.694458C1.34315 0.694458 0 2.0376 0 3.69446V11.1945C0 12.8513 1.34315 14.1945 3 14.1945H10.5C12.1569 14.1945 13.5 12.8513 13.5 11.1945V3.69446C13.5 2.0376 12.1569 0.694458 10.5 0.694458H3Z" fill="#A5A29A"/>
</svg>
