<svg width="14" height="14" viewBox="0 0 14 14" fill="none" xmlns="http://www.w3.org/2000/svg">
<path fill-rule="evenodd" clip-rule="evenodd" d="M10.5 0.809509H3C1.75736 0.809509 0.75 1.81687 0.75 3.05951V10.5595C0.75 11.8022 1.75736 12.8095 3 12.8095H10.5C11.7426 12.8095 12.75 11.8022 12.75 10.5595V3.05951C12.75 1.81687 11.7426 0.809509 10.5 0.809509ZM3 0.0595093C1.34315 0.0595093 0 1.40265 0 3.05951V10.5595C0 12.2164 1.34315 13.5595 3 13.5595H10.5C12.1569 13.5595 13.5 12.2164 13.5 10.5595V3.05951C13.5 1.40266 12.1569 0.0595093 10.5 0.0595093H3Z" fill="#A5A29A"/>
</svg>
