<svg width="20" height="20" viewBox="0 0 20 20" fill="none" xmlns="http://www.w3.org/2000/svg">
<path fill-rule="evenodd" clip-rule="evenodd" d="M11.6663 11.6666H13.333C13.793 11.6666 14.1663 12.04 14.1663 12.5V15.8333C14.1663 16.2933 13.793 16.6666 13.333 16.6666H11.6663C11.2063 16.6666 10.833 16.2933 10.833 15.8333V12.5C10.833 12.04 11.2063 11.6666 11.6663 11.6666Z" stroke="#1F1F1F" stroke-width="1.5" stroke-linecap="round" stroke-linejoin="round"/>
<path d="M17.5003 14.1666H14.167" stroke="#1F1F1F" stroke-width="1.5" stroke-linecap="round" stroke-linejoin="round"/>
<path d="M10.8333 14.1666H2.5" stroke="#1F1F1F" stroke-width="1.5" stroke-linecap="round" stroke-linejoin="round"/>
<path fill-rule="evenodd" clip-rule="evenodd" d="M8.33301 8.33337H6.66634C6.20634 8.33337 5.83301 7.96004 5.83301 7.50004V4.16671C5.83301 3.70671 6.20634 3.33337 6.66634 3.33337H8.33301C8.79301 3.33337 9.16634 3.70671 9.16634 4.16671V7.50004C9.16634 7.96004 8.79301 8.33337 8.33301 8.33337Z" stroke="#1F1F1F" stroke-width="1.5" stroke-linecap="round" stroke-linejoin="round"/>
<path d="M2.5 5.83337H5.83333" stroke="#1F1F1F" stroke-width="1.5" stroke-linecap="round" stroke-linejoin="round"/>
<path d="M9.16699 5.83337H17.5003" stroke="#1F1F1F" stroke-width="1.5" stroke-linecap="round" stroke-linejoin="round"/>
</svg>
