<svg width="32" height="32" viewBox="0 0 32 32" fill="none" xmlns="http://www.w3.org/2000/svg">
<g clip-path="url(#clip0_453_3945)">
<path fill-rule="evenodd" clip-rule="evenodd" d="M19.5113 6.3999C19.6788 7.53765 19.2157 8.65227 18.6048 9.44088C17.9512 10.2868 16.8246 10.941 15.7331 10.9068C15.5338 9.81756 16.044 8.69523 16.6648 7.94077C17.3457 7.1081 18.5128 6.46929 19.5113 6.3999ZM22.7902 22.4143C23.353 21.5519 23.5632 21.1169 24 20.1432C20.8229 18.935 20.3138 14.4181 23.4581 12.6845C22.499 11.4818 21.1513 10.7846 19.8791 10.7846C18.9625 10.7846 18.3344 11.0238 17.7635 11.2413C17.2877 11.4225 16.8515 11.5886 16.321 11.5886C15.7477 11.5886 15.2401 11.4066 14.7085 11.216C14.1244 11.0066 13.5114 10.7868 12.7508 10.7868C11.3232 10.7868 9.80359 11.6591 8.84016 13.1504C7.48588 15.2508 7.71689 19.1993 9.91308 22.563C10.6981 23.7668 11.7469 25.1194 13.1187 25.1315C13.6879 25.1371 14.0667 24.9672 14.4766 24.7834C14.9457 24.573 15.4556 24.3443 16.3385 24.3396C17.2266 24.3342 17.7285 24.5657 18.1914 24.7793C18.5908 24.9635 18.9612 25.1343 19.5255 25.1282C20.8984 25.1172 22.0053 23.6181 22.7902 22.4143Z" fill="#1F1F1F"/>
</g>
<defs>
<clipPath id="clip0_453_3945">
<rect width="32" height="32" fill="white"/>
</clipPath>
</defs>
</svg>
