<svg width="17" height="17" viewBox="0 0 17 17" fill="none" xmlns="http://www.w3.org/2000/svg">
<path fill-rule="evenodd" clip-rule="evenodd" d="M10.625 2.24072V1.74072C10.625 1.46458 10.8489 1.24072 11.125 1.24072C11.4011 1.24072 11.625 1.46458 11.625 1.74072V2.24072H13.125C13.125 2.24072 13.5392 2.24072 13.8321 2.53362C13.8321 2.53362 14.125 2.82651 14.125 3.24072V13.2407C14.125 13.2407 14.125 13.6549 13.8321 13.9478C13.8321 13.9478 13.5392 14.2407 13.125 14.2407H3.125C3.125 14.2407 2.71079 14.2407 2.41789 13.9478C2.41789 13.9478 2.125 13.6549 2.125 13.2407V3.24072C2.125 3.24072 2.125 2.82651 2.41789 2.53362C2.41789 2.53362 2.71079 2.24072 3.125 2.24072H4.625V1.74072C4.625 1.46458 4.84886 1.24072 5.125 1.24072C5.40114 1.24072 5.625 1.46458 5.625 1.74072V2.24072H10.625ZM3.125 6.24072V13.2407H13.125V6.24072H3.125ZM13.125 5.24072H3.125V3.24072H4.625V3.74072C4.625 4.01687 4.84886 4.24072 5.125 4.24072C5.40114 4.24072 5.625 4.01687 5.625 3.74072V3.24072H10.625V3.74072C10.625 4.01687 10.8489 4.24072 11.125 4.24072C11.4011 4.24072 11.625 4.01687 11.625 3.74072V3.24072H13.125V5.24072Z" fill="#A5A29A"/>
</svg>
