<svg width="29" height="29" viewBox="0 0 33 33" fill="none" xmlns="http://www.w3.org/2000/svg">
<path d="M10.333 12.0138L10.3463 11.999" stroke="#1F1F1F" strokeWidth="2" strokeLinecap="round" strokeLinejoin="round"/>
<path d="M15.667 12.0138L15.6803 11.999" stroke="#1F1F1F" strokeWidth="2" strokeLinecap="round" strokeLinejoin="round"/>
<path d="M10.333 17.3468L10.3463 17.332" stroke="#1F1F1F" strokeWidth="2" strokeLinecap="round" strokeLinejoin="round"/>
<path d="M15.667 17.3468L15.6803 17.332" stroke="#1F1F1F" strokeWidth="2" strokeLinecap="round" strokeLinejoin="round"/>
<path d="M10.333 22.6798L10.3463 22.665" stroke="#1F1F1F" strokeWidth="2" strokeLinecap="round" strokeLinejoin="round"/>
<path d="M15.667 22.6798L15.6803 22.665" stroke="#1F1F1F" strokeWidth="2" strokeLinecap="round" strokeLinejoin="round"/>
<path d="M21 28H5.8C5.35817 28 5 27.6419 5 27.2V7.46667C5 7.02484 5.35817 6.66667 5.8 6.66667H13V4.8C13 4.35817 13.3582 4 13.8 4H20.2C20.6419 4 21 4.35817 21 4.8V12M21 28H28.2C28.6419 28 29 27.6419 29 27.2V12.8C29 12.3582 28.6419 12 28.2 12H21M21 28V22.6667M21 12V17.3333M21 22.6667V17.3333M21 22.6667H23.6667M21 17.3333H23.6667" stroke="#1F1F1F" strokeWidth="2" strokeLinecap="round" strokeLinejoin="round"/>
</svg>

