<svg width="32" height="32" viewBox="0 0 32 32" fill="none" xmlns="http://www.w3.org/2000/svg">
<g clip-path="url(#clip0_453_3955)">
<path d="M16 11.0933C17.5022 11.0933 18.5156 11.7422 19.0933 12.2844L21.3511 10.08C19.9644 8.79111 18.16 8 16 8C12.8711 8 10.1689 9.79556 8.85333 12.4089L11.44 14.4178C12.0889 12.4889 13.8844 11.0933 16 11.0933Z" fill="#E14033"/>
<path d="M23.68 16.1775C23.68 15.5198 23.6267 15.0398 23.5111 14.542H16V17.5109H20.4089C20.32 18.2487 19.84 19.3598 18.7733 20.1064L21.2978 22.062C22.8089 20.6664 23.68 18.6131 23.68 16.1775Z" fill="#1984C6"/>
<path d="M11.4489 17.582C11.28 17.0842 11.1822 16.5509 11.1822 15.9998C11.1822 15.4487 11.28 14.9154 11.44 14.4176L8.85333 12.4087C8.31111 13.4931 8 14.7109 8 15.9998C8 17.2887 8.31111 18.5065 8.85333 19.5909L11.4489 17.582Z" fill="#FFD712"/>
<path d="M16 23.9998C18.16 23.9998 19.9733 23.2887 21.2978 22.062L18.7733 20.1065C18.0978 20.5776 17.1911 20.9065 16 20.9065C13.8844 20.9065 12.0889 19.5109 11.4489 17.582L8.86221 19.5909C10.1778 22.2043 12.8711 23.9998 16 23.9998Z" fill="#289D99"/>
</g>
<defs>
<clipPath id="clip0_453_3955">
<rect width="32" height="32" fill="white"/>
</clipPath>
</defs>
</svg>
