<svg width="16" height="17" viewBox="0 0 16 17" fill="none" xmlns="http://www.w3.org/2000/svg">
<path d="M14.35 14.536C14.2566 14.6279 14.131 14.6796 14 14.6798C13.8672 14.6792 13.7397 14.6278 13.6437 14.536L10.9437 11.8298C9.80659 12.7849 8.34462 13.2642 6.86273 13.1676C5.38083 13.071 3.99343 12.4061 2.98988 11.3114C1.98633 10.2168 1.44412 8.77698 1.47633 7.29229C1.50855 5.8076 2.11269 4.39267 3.16277 3.34258C4.21286 2.2925 5.62779 1.68835 7.11248 1.65614C8.59717 1.62393 10.037 2.16614 11.1316 3.16969C12.2263 4.17324 12.8912 5.56064 12.9878 7.04254C13.0844 8.52443 12.6051 9.9864 11.65 11.1235L14.35 13.8235C14.3972 13.8701 14.4347 13.9255 14.4603 13.9867C14.486 14.0478 14.4991 14.1135 14.4991 14.1798C14.4991 14.2461 14.486 14.3117 14.4603 14.3729C14.4347 14.4341 14.3972 14.4895 14.35 14.536ZM7.24997 12.1798C8.18944 12.1798 9.1078 11.9012 9.88893 11.3793C10.6701 10.8573 11.2789 10.1155 11.6384 9.24753C11.9979 8.37958 12.092 7.42452 11.9087 6.50311C11.7254 5.5817 11.273 4.73533 10.6087 4.07103C9.94443 3.40673 9.09806 2.95433 8.17665 2.77105C7.25524 2.58777 6.30018 2.68184 5.43223 3.04136C4.56428 3.40087 3.82243 4.00969 3.30049 4.79083C2.77856 5.57196 2.49997 6.49032 2.49997 7.42978C2.50163 8.68906 3.0026 9.89628 3.89304 10.7867C4.78348 11.6772 5.9907 12.1781 7.24997 12.1798Z" fill="#A5A29A"/>
</svg>
