<svg width="33" height="32" viewBox="0 0 33 32" fill="none" xmlns="http://www.w3.org/2000/svg">
<path d="M28.5 20V26C28.5 26.2653 28.3947 26.5195 28.2072 26.7072C28.0195 26.8947 27.7653 27 27.5 27H5.5C5.23474 27 4.98047 26.8947 4.79285 26.7072C4.60535 26.5195 4.5 26.2653 4.5 26V20" fill="#A5A29A"/>
<path fill-rule="evenodd" clip-rule="evenodd" d="M3.5 10C3.5 10 3.5 9.17157 4.08579 8.58579C4.08579 8.58579 4.67157 8 5.5 8H27.5C27.5 8 28.3284 8 28.9142 8.58579C28.9142 8.58579 29.5 9.17157 29.5 10V26C29.5 26 29.5 26.8284 28.9142 27.4142C28.9142 27.4142 28.3284 28 27.5 28H5.5C5.5 28 4.67157 28 4.08579 27.4142C4.08579 27.4142 3.5 26.8284 3.5 26V10ZM5.5 10V26H27.5V10H5.5Z" fill="#1F1F1F"/>
<path d="M11.3787 4.87868C10.5 5.75736 10.5 7 10.5 7V9C10.5 9.55228 10.9477 10 11.5 10C12.0523 10 12.5 9.55228 12.5 9V7C12.5 6.58579 12.7929 6.29289 12.7929 6.29289C13.0858 6 13.5 6 13.5 6H19.5C19.9142 6 20.2071 6.29289 20.2071 6.29289C20.5 6.58579 20.5 7 20.5 7V9C20.5 9.55228 20.9477 10 21.5 10C22.0523 10 22.5 9.55228 22.5 9V7C22.5 5.75736 21.6213 4.87868 21.6213 4.87868C20.7426 4 19.5 4 19.5 4H13.5C12.2574 4 11.3787 4.87868 11.3787 4.87868Z" fill="#1F1F1F"/>
<path d="M4.5 21H28.5C29.0523 21 29.5 20.5523 29.5 20C29.5 19.4477 29.0523 19 28.5 19H4.5C3.94772 19 3.5 19.4477 3.5 20C3.5 20.5523 3.94772 21 4.5 21Z" fill="#1F1F1F"/>
</svg>
