<svg width="33" height="33" viewBox="0 0 33 33" fill="none" xmlns="http://www.w3.org/2000/svg">
<path d="M16.5 4.5C14.072 4.49927 11.7007 5.23511 9.69971 6.6106C7.69849 7.98584 6.16187 9.93579 5.29224 12.2031C4.42285 14.4702 4.26147 16.9478 4.82983 19.3083C5.39819 21.6692 6.66919 23.802 8.4751 25.425C9.22754 23.9431 10.3757 22.6987 11.7922 21.8293C13.2087 20.96 14.8381 20.5 16.5 20.5C15.5112 20.5 14.5444 20.2068 13.7222 19.6575C12.8999 19.1079 12.259 18.3271 11.8806 17.4133C11.5022 16.4998 11.4033 15.4944 11.5962 14.5247C11.7891 13.5547 12.2654 12.6638 12.9646 11.9644C13.6638 11.2651 14.5547 10.7891 15.5247 10.5962C16.4946 10.4031 17.5 10.5022 18.4136 10.8806C19.3271 11.259 20.1082 11.8999 20.6575 12.7222C21.2068 13.5444 21.5 14.511 21.5 15.5C21.5 16.8262 20.9734 18.0979 20.0356 19.0356C19.0979 19.9731 17.8262 20.5 16.5 20.5C18.1621 20.5 19.7915 20.96 21.208 21.8293C22.6245 22.6987 23.7727 23.9431 24.5251 25.425C26.3311 23.802 27.6021 21.6692 28.1704 19.3083C28.7385 16.9478 28.5774 14.4702 27.7078 12.2031C26.8384 9.93579 25.3015 7.98584 23.3005 6.6106C21.2996 5.23511 18.9282 4.49927 16.5 4.5Z" fill="#A5A29A"/>
<path fill-rule="evenodd" clip-rule="evenodd" d="M16.5 3.5C16.5 3.5 19.1442 3.5 21.5605 4.52201C21.5605 4.52201 23.8936 5.50884 25.6924 7.30761C25.6924 7.30761 27.4912 9.10638 28.478 11.4395C28.478 11.4395 29.5 13.8558 29.5 16.5C29.5 16.5 29.5 19.1442 28.478 21.5605C28.478 21.5605 27.4912 23.8936 25.6924 25.6924C25.6924 25.6924 23.8936 27.4912 21.5605 28.478C21.5605 28.478 19.1442 29.5 16.5 29.5C16.5 29.5 13.8558 29.5 11.4395 28.478C11.4395 28.478 9.10638 27.4912 7.30761 25.6924C7.30761 25.6924 5.50884 23.8936 4.52202 21.5605C4.52202 21.5605 3.5 19.1442 3.5 16.5C3.5 16.5 3.5 13.8558 4.52202 11.4395C4.52202 11.4395 5.50885 9.10638 7.30761 7.30761C7.30761 7.30761 9.10638 5.50884 11.4395 4.52201C11.4395 4.52201 13.8558 3.5 16.5 3.5ZM16.5 5.5C16.5 5.5 14.2614 5.5 12.2186 6.36402C12.2186 6.36402 10.2448 7.19889 8.72183 8.72182C8.72183 8.72182 7.1989 10.2448 6.36402 12.2186C6.36402 12.2186 5.5 14.2614 5.5 16.5C5.5 16.5 5.5 18.7386 6.36402 20.7814C6.36402 20.7814 7.19889 22.7552 8.72183 24.2782C8.72183 24.2782 10.2448 25.8011 12.2186 26.636C12.2186 26.636 14.2614 27.5 16.5 27.5C16.5 27.5 18.7386 27.5 20.7814 26.636C20.7814 26.636 22.7552 25.8011 24.2782 24.2782C24.2782 24.2782 25.8011 22.7552 26.636 20.7814C26.636 20.7814 27.5 18.7386 27.5 16.5C27.5 16.5 27.5 14.2614 26.636 12.2186C26.636 12.2186 25.8011 10.2448 24.2782 8.72183C24.2782 8.72183 22.7552 7.19889 20.7814 6.36402C20.7814 6.36402 18.7386 5.5 16.5 5.5Z" fill="#1F1F1F"/>
<path fill-rule="evenodd" clip-rule="evenodd" d="M16.5 9.5C16.5 9.5 18.9853 9.5 20.7426 11.2574C20.7426 11.2574 22.5 13.0147 22.5 15.5C22.5 15.5 22.5 17.9853 20.7426 19.7426C20.7426 19.7426 18.9853 21.5 16.5 21.5C16.5 21.5 14.0147 21.5 12.2574 19.7426C12.2574 19.7426 10.5 17.9853 10.5 15.5C10.5 15.5 10.5 13.0147 12.2574 11.2574C12.2574 11.2574 14.0147 9.5 16.5 9.5ZM16.5 11.5C16.5 11.5 14.8431 11.5 13.6716 12.6716C13.6716 12.6716 12.5 13.8431 12.5 15.5C12.5 15.5 12.5 17.1569 13.6716 18.3284C13.6716 18.3284 14.8431 19.5 16.5 19.5C16.5 19.5 18.1569 19.5 19.3284 18.3284C19.3284 18.3284 20.5 17.1569 20.5 15.5C20.5 15.5 20.5 13.8431 19.3284 12.6716C19.3284 12.6716 18.1569 11.5 16.5 11.5Z" fill="#1F1F1F"/>
<path d="M20.685 22.6809C22.6106 23.8629 23.6334 25.8775 23.6334 25.8775C23.7535 26.114 23.9626 26.2931 24.2147 26.3754C24.3149 26.4081 24.4197 26.4248 24.5251 26.4248L24.5525 26.4244C24.7005 26.4204 24.8458 26.3835 24.9778 26.3165C25.3136 26.146 25.5251 25.8014 25.5251 25.4248C25.5251 25.4105 25.5248 25.3962 25.5242 25.3819C25.518 25.2392 25.4814 25.0995 25.4168 24.9721L25.4166 24.9718L25.4163 24.9711C24.1378 22.4535 21.7313 20.9764 21.7313 20.9764C19.3243 19.499 16.5001 19.499 16.5001 19.499C13.6759 19.499 11.2689 20.9764 11.2689 20.9764C8.86194 22.4538 7.58343 24.9721 7.58343 24.9721C7.51221 25.1124 7.4751 25.2675 7.4751 25.4248L7.47513 25.4322C7.4779 25.8061 7.68902 26.1472 8.02241 26.3165C8.16268 26.3877 8.31778 26.4248 8.4751 26.4248L8.48252 26.4248C8.8564 26.422 9.1975 26.2109 9.36676 25.8775C10.3896 23.8629 12.3151 22.6809 12.3151 22.6809C14.2407 21.499 16.5001 21.499 16.5001 21.499C18.7595 21.499 20.685 22.6809 20.685 22.6809Z" fill="#1F1F1F"/>
</svg>
